<svg width="349" height="235.95100393776698" viewBox="0 0 349 235.95100393776698"><defs id="SvgjsDefs2170"></defs><g id="SvgjsG2171" featurekey="symbolFeature-0" transform="matrix(3.510140071385417,0,0,3.510140071385417,-63.18250789481577,-57.49672075918777)" fill="#e6133d"><path xmlns="http://www.w3.org/2000/svg" d="M77.3,54.3h-7.1v-2.8c0-1.9-1.5-3.4-3.4-3.4H54.9c-1.9,0-3.4,1.5-3.4,3.4v2.8H44c-2.6,0-4.8,2.2-4.8,4.8v19.3  c0,2.6,2.2,4.8,4.8,4.8h33.3c2.6,0,4.8-2.2,4.8-4.8V59.1C82.1,56.4,79.9,54.3,77.3,54.3z M53,51.5c0-1.1,0.9-2,2-2h11.8  c1.1,0,2,0.9,2,2v2.8h-1v-1.7c0-1.2-1-2.2-2.2-2.2h-9.2c-1.2,0-2.2,1-2.2,2.2v1.7H53V51.5z M66.3,54.3H55.5v-1.7  c0-0.4,0.4-0.8,0.8-0.8h9.2c0.4,0,0.8,0.4,0.8,0.8V54.3z M80.6,78.4c0,1.9-1.5,3.4-3.4,3.4H44c-1.9,0-3.4-1.5-3.4-3.4V59.1  c0-1.9,1.5-3.4,3.4-3.4h8.2c0,0,0.1,0,0.1,0h17.2c0,0,0.1,0,0.1,0h7.7c1.9,0,3.4,1.5,3.4,3.4V78.4z M46.9,57.2v22.4  c0,0.4-0.3,0.7-0.7,0.7s-0.7-0.3-0.7-0.7V57.2c0-0.4,0.3-0.7,0.7-0.7S46.9,56.8,46.9,57.2z M75.4,57.2v22.4c0,0.4-0.3,0.7-0.7,0.7  c-0.4,0-0.7-0.3-0.7-0.7V57.2c0-0.4,0.3-0.7,0.7-0.7C75.1,56.5,75.4,56.8,75.4,57.2z M70.8,59.6h-9.3c-0.4,0-0.7,0.3-0.7,0.7v4.9  c0,0.4,0.3,0.7,0.7,0.7h9.3c0.4,0,0.7-0.3,0.7-0.7v-4.9C71.5,59.9,71.2,59.6,70.8,59.6z M70.1,64.4h-2.4l0.8-0.7  c0.3-0.3,0.3-0.7,0-1c-0.3-0.3-0.7-0.3-1,0l-1.7,1.7c0,0,0,0,0,0h-0.8l1.5-1.5c0.3-0.3,0.3-0.7,0-1c-0.3-0.3-0.7-0.3-1,0l-2.5,2.5  c0,0,0,0,0,0h-0.6V61h7.9V64.4z M70.8,66.7H67c-0.4,0-0.7,0.3-0.7,0.7v3.7c0,0.4,0.3,0.7,0.7,0.7h3.8c0.4,0,0.7-0.3,0.7-0.7v-3.7  C71.5,67.1,71.2,66.7,70.8,66.7z M70.1,70.4h-2.4v-2.3h2.4V70.4z M64,66.7h-2.5c-0.4,0-0.7,0.3-0.7,0.7v2.4c0,0.4,0.3,0.7,0.7,0.7  H64c0.4,0,0.7-0.3,0.7-0.7v-2.4C64.7,67.1,64.4,66.7,64,66.7z M63.3,69.2h-1.1v-1h1.1V69.2z M70.8,72.4h-2.5c-0.4,0-0.7,0.3-0.7,0.7  v2.4c0,0.4,0.3,0.7,0.7,0.7h2.5c0.4,0,0.7-0.3,0.7-0.7v-2.4C71.5,72.7,71.2,72.4,70.8,72.4z M70.1,74.8H69v-1h1.1V74.8z M36.1,79.5  H22.3c-1.6,0-3-1.3-3-3v-26c0-1.6,1.3-3,3-3h18.4c1.6,0,3,1.2,3,2.8v1.4c0,0.4,0.3,0.7,0.7,0.7c0.4,0,0.7-0.3,0.7-0.7v-1.4  c0-2.3-2-4.2-4.4-4.2h-2.7V29.6c0-1.2-1-2.2-2.2-2.2h-8.9c-1.2,0-2.2,1-2.2,2.2l0,16.6h-2.3c-2.4,0-4.4,2-4.4,4.4v26  c0,2.2,1.7,4,3.8,4.3c0.1,1.5,1.4,2.7,2.9,2.7c1.5,0,2.8-1.2,2.9-2.7h8.6c0.4,0,0.7-0.3,0.7-0.7C36.9,79.9,36.5,79.5,36.1,79.5z   M34.6,32.7v13.5H28V32.7H34.6z M36.1,46.2V32.7h0.4v13.5H36.1z M26.8,28.8h8.9c0.4,0,0.7,0.4,0.7,0.8v1.6H26.1l0-1.6  C26.1,29.1,26.4,28.8,26.8,28.8z M26.1,32.7h0.4v13.5h-0.4L26.1,32.7z M24.6,82.2c-0.7,0-1.3-0.5-1.4-1.2h2.9  C26,81.7,25.4,82.2,24.6,82.2z M37.9,53.7c0,0.4-0.3,0.7-0.7,0.7H23.6c-0.4,0-0.7-0.3-0.7-0.7c0-0.4,0.3-0.7,0.7-0.7h13.6  C37.6,53,37.9,53.3,37.9,53.7z M23.6,75c-0.4,0-0.7-0.3-0.7-0.7c0-0.4,0.3-0.7,0.7-0.7h12.1c0.4,0,0.7,0.3,0.7,0.7  c0,0.4-0.3,0.7-0.7,0.7H23.6z M44.9,43.3c0-0.4,0.3-0.7,0.7-0.7h4.5c6.8,0,13.2-3,17.5-8.3c0.3-0.3,0.7-0.4,1-0.1  c0.3,0.3,0.4,0.7,0.1,1C64.2,40.8,57.4,44,50.2,44h-4.5C45.3,44,44.9,43.7,44.9,43.3z M78.8,24.4c0.9,2,1.8,3.9,2.7,5.8  c0.4,0.8,0.3,1.6-0.2,2.5c-0.2,0.3-0.4,0.4-0.7,0.5c0,0-0.1,0-0.1,0c-0.2,0-0.5-0.1-0.7-0.3c-0.1-0.1-0.1-0.1-0.2-0.2  c-0.7-0.9-1.4-1.7-2-2.6c-0.6-0.8-1.2-1.5-1.8-2.3c-0.2-0.3-0.2-0.8,0.1-1c0.3-0.2,0.8-0.2,1,0.1c0.6,0.8,1.2,1.6,1.8,2.3  c0.5,0.7,1.1,1.4,1.7,2.2c0-0.2,0-0.4-0.1-0.5c-0.9-1.9-1.8-3.8-2.7-5.8c-0.2-0.4,0-0.8,0.4-1C78.2,23.9,78.7,24.1,78.8,24.4z   M64.9,23.3c-0.2-0.3-0.2-0.7-0.1-1c0.1-0.5,0.6-1.2,2.2-1.2c1.7,0.1,5,0,6.6,0c0.3,0,0.5,0,0.6,0c0.5-0.7,1.9-2.5,2.3-3  c0.8-1.1,2.3-2.2,3.5-1.5c1,0.6,1,1.8,0,3.6c-0.5,0.9-5.8,8.4-7.1,10.2c0,0.1,0.1,0.4,0.2,0.7c0.1,0.4,0.3,1,0.3,1.2  c0.1,0.4,0.3,1.3-0.3,1.9c-0.2,0.2-0.5,0.4-0.9,0.4c-0.2,0-0.5-0.1-0.7-0.2l-2.3-2.1c-0.3-0.3-0.3-0.7,0-1c0.3-0.3,0.7-0.3,1,0  l1.9,1.7c0-0.1,0-0.1,0-0.2c-0.1-0.2-0.2-0.7-0.3-1.2c-0.2-0.6-0.2-0.8-0.2-0.9c0-0.2-0.1-0.6,0.2-0.9c1.7-2.3,6.7-9.4,7.1-10.2  c0.7-1.2,0.6-1.6,0.5-1.7c-0.2-0.1-1,0.3-1.6,1.1c-0.5,0.7-2.6,3.3-2.6,3.3c-0.2,0.2-0.4,0.3-0.7,0.3c0,0-0.4,0-0.9,0  c-1.6,0-5,0-6.6,0c-0.2,0-0.4,0-0.5,0.1c1.3,0.3,4.6,1.2,6.5,1.7c0.4,0.1,0.6,0.5,0.5,0.9c-0.1,0.4-0.5,0.6-0.9,0.5  c-2.2-0.6-6.5-1.7-6.9-1.8C65.4,23.8,65.1,23.6,64.9,23.3z"></path></g><g id="SvgjsG2172" featurekey="nameFeature-0" transform="matrix(6.131771666449716,0,0,6.131771666449716,243.85114704647796,-65.95376517291513)" fill="#e6133d"><path d="M17.148 20.215 l-9.2969 15.977 l9.1016 0 l0 3.8086 l-16.113 0 l9.2383 -15.977 l-8.5938 0 l0 -3.8086 l15.664 0 z"></path></g></svg>